<?xml version="1.0" encoding="UTF-8" standalone="no"?>
<!DOCTYPE svg PUBLIC "-//W3C//DTD SVG 1.0//EN" "http://www.w3.org/TR/2001/PR-SVG-20010719/DTD/svg10.dtd">
<svg width="61cm" height="33cm" viewBox="-177 -7 1218 659" xmlns="http://www.w3.org/2000/svg" xmlns:xlink="http://www.w3.org/1999/xlink">
  <g>
    <ellipse style="fill: #ffffff" cx="529" cy="148" rx="6" ry="6"/>
    <ellipse style="fill: none; fill-opacity:0; stroke-width: 2; stroke: #000000" cx="529" cy="148" rx="6" ry="6"/>
    <line style="fill: none; fill-opacity:0; stroke-width: 2; stroke: #000000" x1="505" y1="160" x2="553" y2="160"/>
    <line style="fill: none; fill-opacity:0; stroke-width: 2; stroke: #000000" x1="529" y1="154" x2="529" y2="184"/>
    <line style="fill: none; fill-opacity:0; stroke-width: 2; stroke: #000000" x1="529" y1="184" x2="505" y2="210"/>
    <line style="fill: none; fill-opacity:0; stroke-width: 2; stroke: #000000" x1="529" y1="184" x2="553" y2="210"/>
    <text font-size="12.8" style="fill: #000000;text-anchor:middle;font-family:sans-serif;font-style:normal;font-weight:normal" x="529" y="233.9">
      <tspan x="529" y="233.9">Participante</tspan>
    </text>
  </g>
  <g>
    <ellipse style="fill: #ffffff" cx="452" cy="456" rx="6" ry="6"/>
    <ellipse style="fill: none; fill-opacity:0; stroke-width: 2; stroke: #000000" cx="452" cy="456" rx="6" ry="6"/>
    <line style="fill: none; fill-opacity:0; stroke-width: 2; stroke: #000000" x1="428" y1="468" x2="476" y2="468"/>
    <line style="fill: none; fill-opacity:0; stroke-width: 2; stroke: #000000" x1="452" y1="462" x2="452" y2="492"/>
    <line style="fill: none; fill-opacity:0; stroke-width: 2; stroke: #000000" x1="452" y1="492" x2="428" y2="518"/>
    <line style="fill: none; fill-opacity:0; stroke-width: 2; stroke: #000000" x1="452" y1="492" x2="476" y2="518"/>
    <text font-size="12.8" style="fill: #000000;text-anchor:middle;font-family:sans-serif;font-style:normal;font-weight:normal" x="452" y="541.9">
      <tspan x="452" y="541.9">Moderador</tspan>
    </text>
  </g>
  <g>
    <ellipse style="fill: #ffffff" cx="692.714" cy="219.938" rx="6" ry="6"/>
    <ellipse style="fill: none; fill-opacity:0; stroke-width: 2; stroke: #000000" cx="692.714" cy="219.938" rx="6" ry="6"/>
    <line style="fill: none; fill-opacity:0; stroke-width: 2; stroke: #000000" x1="668.714" y1="231.938" x2="716.714" y2="231.938"/>
    <line style="fill: none; fill-opacity:0; stroke-width: 2; stroke: #000000" x1="692.714" y1="225.938" x2="692.714" y2="255.938"/>
    <line style="fill: none; fill-opacity:0; stroke-width: 2; stroke: #000000" x1="692.714" y1="255.938" x2="668.714" y2="281.938"/>
    <line style="fill: none; fill-opacity:0; stroke-width: 2; stroke: #000000" x1="692.714" y1="255.938" x2="716.714" y2="281.938"/>
    <text font-size="12.8" style="fill: #000000;text-anchor:middle;font-family:sans-serif;font-style:normal;font-weight:normal" x="692.714" y="305.838">
      <tspan x="692.714" y="305.838">Usuário do Serviço</tspan>
    </text>
  </g>
  <g>
    <ellipse style="fill: #ffffff" cx="943.29" cy="181.725" rx="60.2" ry="20.0667"/>
    <ellipse style="fill: none; fill-opacity:0; stroke-width: 2; stroke: #000000" cx="943.29" cy="181.725" rx="60.2" ry="20.0667"/>
    <text font-size="12.8" style="fill: #000000;text-anchor:middle;font-family:sans-serif;font-style:normal;font-weight:normal" x="943.29" y="185.625">
      <tspan x="943.29" y="185.625">Criar grupo</tspan>
    </text>
  </g>
  <g>
    <ellipse style="fill: #ffffff" cx="668.325" cy="133.852" rx="78.775" ry="26.2583"/>
    <ellipse style="fill: none; fill-opacity:0; stroke-width: 2; stroke: #000000" cx="668.325" cy="133.852" rx="78.775" ry="26.2583"/>
    <text font-size="12.8" style="fill: #000000;text-anchor:middle;font-family:sans-serif;font-style:normal;font-weight:normal" x="668.325" y="137.752">
      <tspan x="668.325" y="137.752">Pesquisar grupos</tspan>
    </text>
  </g>
  <g>
    <ellipse style="fill: #ffffff" cx="831.865" cy="370.04" rx="112.175" ry="37.3917"/>
    <ellipse style="fill: none; fill-opacity:0; stroke-width: 2; stroke: #000000" cx="831.865" cy="370.04" rx="112.175" ry="37.3917"/>
    <text font-size="12.8" style="fill: #000000;text-anchor:middle;font-family:sans-serif;font-style:normal;font-weight:normal" x="831.865" y="365.94">
      <tspan x="831.865" y="365.94">Aceitar participação</tspan>
      <tspan x="831.865" y="381.94">em um grupo</tspan>
    </text>
  </g>
  <g>
    <ellipse style="fill: #ffffff" cx="917.776" cy="278.253" rx="122.35" ry="40.7833"/>
    <ellipse style="fill: none; fill-opacity:0; stroke-width: 2; stroke: #000000" cx="917.776" cy="278.253" rx="122.35" ry="40.7833"/>
    <text font-size="12.8" style="fill: #000000;text-anchor:middle;font-family:sans-serif;font-style:normal;font-weight:normal" x="917.776" y="274.153">
      <tspan x="917.776" y="274.153">Listar grupos dos quais</tspan>
      <tspan x="917.776" y="290.153">é membro</tspan>
    </text>
  </g>
  <line style="fill: none; fill-opacity:0; stroke-width: 2; stroke: #000000" x1="785.043" y1="331.646" x2="752.726" y2="305.147"/>
  <line style="fill: none; fill-opacity:0; stroke-width: 2; stroke: #000000" x1="794.448" y1="266.025" x2="752.73" y2="261.889"/>
  <line style="fill: none; fill-opacity:0; stroke-width: 2; stroke: #000000" x1="882.099" y1="199.848" x2="752.743" y2="238.159"/>
  <line style="fill: none; fill-opacity:0; stroke-width: 2; stroke: #000000" x1="673.77" y1="161.11" x2="681.727" y2="200.938"/>
  <line style="fill: none; fill-opacity:0; stroke-width: 2; stroke: #000000" x1="917.776" y1="278.253" x2="917.776" y2="278.253"/>
  <g>
    <ellipse style="fill: #ffffff" cx="833.341" cy="540.784" rx="139.675" ry="46.5583"/>
    <ellipse style="fill: none; fill-opacity:0; stroke-width: 2; stroke: #000000" cx="833.341" cy="540.784" rx="139.675" ry="46.5583"/>
    <text font-size="12.8" style="fill: #000000;text-anchor:middle;font-family:sans-serif;font-style:normal;font-weight:normal" x="833.341" y="536.684">
      <tspan x="833.341" y="536.684">Fornercer informações sobre</tspan>
      <tspan x="833.341" y="552.684">o livro disponibilizado</tspan>
    </text>
  </g>
  <g>
    <ellipse style="fill: #ffffff" cx="382.057" cy="26.6881" rx="97.375" ry="32.4583"/>
    <ellipse style="fill: none; fill-opacity:0; stroke-width: 2; stroke: #000000" cx="382.057" cy="26.6881" rx="97.375" ry="32.4583"/>
    <text font-size="12.8" style="fill: #000000;text-anchor:middle;font-family:sans-serif;font-style:normal;font-weight:normal" x="382.057" y="30.5881">
      <tspan x="382.057" y="30.5881">Confirmar participação</tspan>
    </text>
  </g>
  <g>
    <ellipse style="fill: #ffffff" cx="286.873" cy="98.6286" rx="118.8" ry="39.6"/>
    <ellipse style="fill: none; fill-opacity:0; stroke-width: 2; stroke: #000000" cx="286.873" cy="98.6286" rx="118.8" ry="39.6"/>
    <text font-size="12.8" style="fill: #000000;text-anchor:middle;font-family:sans-serif;font-style:normal;font-weight:normal" x="286.873" y="102.529">
      <tspan x="286.873" y="102.529">Informar código da postagem</tspan>
    </text>
  </g>
  <g>
    <ellipse style="fill: #ffffff" cx="308.917" cy="196.575" rx="112.1" ry="37.3667"/>
    <ellipse style="fill: none; fill-opacity:0; stroke-width: 2; stroke: #000000" cx="308.917" cy="196.575" rx="112.1" ry="37.3667"/>
    <text font-size="12.8" style="fill: #000000;text-anchor:middle;font-family:sans-serif;font-style:normal;font-weight:normal" x="308.917" y="200.475">
      <tspan x="308.917" y="200.475">Avaliar outros participantes</tspan>
    </text>
  </g>
  <g>
    <ellipse style="fill: #ffffff" cx="35.8276" cy="399.39" rx="91.35" ry="30.45"/>
    <ellipse style="fill: none; fill-opacity:0; stroke-width: 2; stroke: #000000" cx="35.8276" cy="399.39" rx="91.35" ry="30.45"/>
    <text font-size="12.8" style="fill: #000000;text-anchor:middle;font-family:sans-serif;font-style:normal;font-weight:normal" x="35.8276" y="403.29">
      <tspan x="35.8276" y="403.29">Preencher formulário</tspan>
    </text>
  </g>
  <g>
    <ellipse style="fill: #ffffff" cx="135.217" cy="611.78" rx="115.35" ry="38.45"/>
    <ellipse style="fill: none; fill-opacity:0; stroke-width: 2; stroke: #000000" cx="135.217" cy="611.78" rx="115.35" ry="38.45"/>
    <text font-size="12.8" style="fill: #000000;text-anchor:middle;font-family:sans-serif;font-style:normal;font-weight:normal" x="135.217" y="607.68">
      <tspan x="135.217" y="607.68">Preencher formulário</tspan>
      <tspan x="135.217" y="623.68">de desistência</tspan>
    </text>
  </g>
  <line style="fill: none; fill-opacity:0; stroke-width: 2; stroke: #000000" x1="421.994" y1="190.114" x2="490.824" y2="186.181"/>
  <line style="fill: none; fill-opacity:0; stroke-width: 2; stroke: #000000" x1="401.907" y1="139.188" x2="490.798" y2="170.53"/>
  <line style="fill: none; fill-opacity:0; stroke-width: 2; stroke: #000000" x1="413.313" y1="60.1495" x2="490.811" y2="143.117"/>
  <g>
    <ellipse style="fill: #ffffff" cx="590.782" cy="410.425" rx="73.1" ry="24.3667"/>
    <ellipse style="fill: none; fill-opacity:0; stroke-width: 2; stroke: #000000" cx="590.782" cy="410.425" rx="73.1" ry="24.3667"/>
    <text font-size="12.8" style="fill: #000000;text-anchor:middle;font-family:sans-serif;font-style:normal;font-weight:normal" x="590.782" y="414.325">
      <tspan x="590.782" y="414.325">Enviar convites</tspan>
    </text>
  </g>
  <g>
    <ellipse style="fill: #ffffff" cx="520.979" cy="609.46" rx="100.925" ry="33.6417"/>
    <ellipse style="fill: none; fill-opacity:0; stroke-width: 2; stroke: #000000" cx="520.979" cy="609.46" rx="100.925" ry="33.6417"/>
    <text font-size="12.8" style="fill: #000000;text-anchor:middle;font-family:sans-serif;font-style:normal;font-weight:normal" x="520.979" y="613.36">
      <tspan x="520.979" y="613.36">Denunciar participantes</tspan>
    </text>
  </g>
  <g>
    <ellipse style="fill: #ffffff" cx="309.335" cy="543.564" rx="73.025" ry="24.3417"/>
    <ellipse style="fill: none; fill-opacity:0; stroke-width: 2; stroke: #000000" cx="309.335" cy="543.564" rx="73.025" ry="24.3417"/>
    <text font-size="12.8" style="fill: #000000;text-anchor:middle;font-family:sans-serif;font-style:normal;font-weight:normal" x="309.335" y="547.464">
      <tspan x="309.335" y="547.464">Cancelar grupo</tspan>
    </text>
  </g>
  <g>
    <ellipse style="fill: #ffffff" cx="311.971" cy="423.7" rx="66.475" ry="22.1583"/>
    <ellipse style="fill: none; fill-opacity:0; stroke-width: 2; stroke: #000000" cx="311.971" cy="423.7" rx="66.475" ry="22.1583"/>
    <text font-size="12.8" style="fill: #000000;text-anchor:middle;font-family:sans-serif;font-style:normal;font-weight:normal" x="311.971" y="427.6">
      <tspan x="311.971" y="427.6">Banir usuário</tspan>
    </text>
  </g>
  <g>
    <ellipse style="fill: #ffffff" cx="-59.696" cy="546.41" rx="115.35" ry="38.45"/>
    <ellipse style="fill: none; fill-opacity:0; stroke-width: 2; stroke: #000000" cx="-59.696" cy="546.41" rx="115.35" ry="38.45"/>
    <text font-size="12.8" style="fill: #000000;text-anchor:middle;font-family:sans-serif;font-style:normal;font-weight:normal" x="-59.696" y="542.31">
      <tspan x="-59.696" y="542.31">Preencher formulário</tspan>
      <tspan x="-59.696" y="558.31">por banir usuário</tspan>
    </text>
  </g>
  <line style="fill: none; fill-opacity:0; stroke-width: 2; stroke: #000000" x1="359.456" y1="446.862" x2="417.369" y2="475.109"/>
  <line style="fill: none; fill-opacity:0; stroke-width: 2; stroke: #000000" x1="379.448" y1="518.222" x2="417.361" y2="504.52"/>
  <line style="fill: none; fill-opacity:0; stroke-width: 2; stroke: #000000" x1="500.631" y1="574.811" x2="484.283" y2="546.973"/>
  <line style="fill: none; fill-opacity:0; stroke-width: 2; stroke: #000000" x1="547.65" y1="435.778" x2="486.645" y2="471.636"/>
  <g>
    <ellipse style="fill: #ffffff" cx="363.025" cy="306.559" rx="99.825" ry="33.275"/>
    <ellipse style="fill: none; fill-opacity:0; stroke-width: 2; stroke: #000000" cx="363.025" cy="306.559" rx="99.825" ry="33.275"/>
    <text font-size="12.8" style="fill: #000000;text-anchor:middle;font-family:sans-serif;font-style:normal;font-weight:normal" x="363.025" y="310.459">
      <tspan x="363.025" y="310.459">Desistir da participação</tspan>
    </text>
  </g>
  <line style="fill: none; fill-opacity:0; stroke-width: 2; stroke: #000000" x1="409.422" y1="272.299" x2="490.809" y2="212.201"/>
  <g>
    <ellipse style="fill: #ffffff" cx="-22.0922" cy="272.458" rx="115.35" ry="38.45"/>
    <ellipse style="fill: none; fill-opacity:0; stroke-width: 2; stroke: #000000" cx="-22.0922" cy="272.458" rx="115.35" ry="38.45"/>
    <text font-size="12.8" style="fill: #000000;text-anchor:middle;font-family:sans-serif;font-style:normal;font-weight:normal" x="-22.0922" y="268.358">
      <tspan x="-22.0922" y="268.358">Preencher formulário</tspan>
      <tspan x="-22.0922" y="284.358">de cancelamento</tspan>
    </text>
  </g>
  <g>
    <polyline style="fill: none; fill-opacity:0; stroke-width: 2; stroke: #000000" points="529,257.243 529,346 452,346 452,436.993 "/>
    <polygon style="fill: #ffffff" points="537,257.243 529,241.243 521,257.243 "/>
    <polygon style="fill: none; fill-opacity:0; stroke-width: 2; stroke: #000000" points="537,257.243 529,241.243 521,257.243 "/>
  </g>
  <g>
    <polyline style="fill: none; fill-opacity:0; stroke-width: 2; stroke: #000000" points="614.446,255.938 591.945,255.938 591.945,184 567.209,184 "/>
    <polygon style="fill: #ffffff" points="614.446,263.938 630.446,255.938 614.446,247.938 "/>
    <polygon style="fill: none; fill-opacity:0; stroke-width: 2; stroke: #000000" points="614.446,263.938 630.446,255.938 614.446,247.938 "/>
  </g>
  <g>
    <line style="fill: none; fill-opacity:0; stroke-width: 2; stroke-dasharray: 20; stroke: #000000" x1="832.197" y1="408.411" x2="832.891" y2="488.77"/>
    <polyline style="fill: none; fill-opacity:0; stroke-width: 2; stroke: #000000" points="827.824,481.049 832.911,491.006 837.824,480.963 "/>
  </g>
  <g>
    <line style="fill: none; fill-opacity:0; stroke-width: 2; stroke-dasharray: 20; stroke: #000000" x1="262.204" y1="335.164" x2="132.484" y2="371.967"/>
    <polyline style="fill: none; fill-opacity:0; stroke-width: 2; stroke: #000000" points="138.588,365.038 130.333,372.577 141.318,374.658 "/>
  </g>
  <g>
    <line style="fill: none; fill-opacity:0; stroke-width: 2; stroke-dasharray: 20; stroke: #000000" x1="244.519" y1="417.762" x2="132.578" y2="407.907"/>
    <polyline style="fill: none; fill-opacity:0; stroke-width: 2; stroke: #000000" points="140.75,403.608 130.35,407.711 139.873,413.569 "/>
  </g>
  <g>
    <line style="fill: none; fill-opacity:0; stroke-width: 2; stroke-dasharray: 20; stroke: #000000" x1="261.792" y1="518.502" x2="99.4132" y2="432.908"/>
    <polyline style="fill: none; fill-opacity:0; stroke-width: 2; stroke: #000000" points="108.613,432.105 97.4351,431.865 103.95,440.951 "/>
  </g>
  <g>
    <polyline style="fill: none; fill-opacity:0; stroke-width: 2; stroke: #000000" points="35.8276,449.084 35.8276,509.584 135.217,509.584 135.217,572.32 "/>
    <polygon style="fill: #ffffff" points="43.8276,449.084 35.8276,433.084 27.8276,449.084 "/>
    <polygon style="fill: none; fill-opacity:0; stroke-width: 2; stroke: #000000" points="43.8276,449.084 35.8276,433.084 27.8276,449.084 "/>
  </g>
  <g>
    <polyline style="fill: none; fill-opacity:0; stroke-width: 2; stroke: #000000" points="35.8276,349.696 35.8276,331.925 -22.0922,331.925 -22.0922,311.918 "/>
    <polygon style="fill: #ffffff" points="27.8276,349.696 35.8276,365.696 43.8276,349.696 "/>
    <polygon style="fill: none; fill-opacity:0; stroke-width: 2; stroke: #000000" points="27.8276,349.696 35.8276,365.696 43.8276,349.696 "/>
  </g>
  <g>
    <polyline style="fill: none; fill-opacity:0; stroke-width: 2; stroke: #000000" points="35.8276,449.084 35.8276,476.899 -59.696,476.899 -59.696,506.95 "/>
    <polygon style="fill: #ffffff" points="43.8276,449.084 35.8276,433.084 27.8276,449.084 "/>
    <polygon style="fill: none; fill-opacity:0; stroke-width: 2; stroke: #000000" points="43.8276,449.084 35.8276,433.084 27.8276,449.084 "/>
  </g>
  <g>
    <ellipse style="fill: #ffffff" cx="595.82" cy="521.586" rx="59.15" ry="20"/>
    <ellipse style="fill: none; fill-opacity:0; stroke-width: 2; stroke: #000000" cx="595.82" cy="521.586" rx="59.15" ry="20"/>
    <text font-size="12.8" style="fill: #000000;text-anchor:middle;font-family:sans-serif;font-style:normal;font-weight:normal" x="595.82" y="525.486">
      <tspan x="595.82" y="525.486">Negar livro</tspan>
    </text>
  </g>
  <line style="fill: none; fill-opacity:0; stroke-width: 2; stroke: #000000" x1="486.638" y1="499.126" x2="535.664" y2="509.211"/>
  <g>
    <ellipse style="fill: #ffffff" cx="551.545" cy="70.4287" rx="91.075" ry="30.3583"/>
    <ellipse style="fill: none; fill-opacity:0; stroke-width: 2; stroke: #000000" cx="551.545" cy="70.4287" rx="91.075" ry="30.3583"/>
    <text font-size="12.8" style="fill: #000000;text-anchor:middle;font-family:sans-serif;font-style:normal;font-weight:normal" x="551.545" y="74.3287">
      <tspan x="551.545" y="74.3287">Trocar livro oferecido</tspan>
    </text>
  </g>
  <line style="fill: none; fill-opacity:0; stroke-width: 2; stroke: #000000" x1="539.744" y1="129.876" x2="545.323" y2="101.775"/>
  <g>
    <ellipse style="fill: #ffffff" cx="854.851" cy="108.824" rx="94.125" ry="31.375"/>
    <ellipse style="fill: none; fill-opacity:0; stroke-width: 2; stroke: #000000" cx="854.851" cy="108.824" rx="94.125" ry="31.375"/>
    <text font-size="12.8" style="fill: #000000;text-anchor:middle;font-family:sans-serif;font-style:normal;font-weight:normal" x="854.851" y="112.724">
      <tspan x="854.851" y="112.724">Gerenciar mensagens</tspan>
    </text>
  </g>
  <line style="fill: none; fill-opacity:0; stroke-width: 2; stroke: #000000" x1="752.734" y1="201.48" x2="819.176" y2="141.194"/>
  <text font-size="12.8" style="fill: #000000;text-anchor:start;font-family:sans-serif;font-style:normal;font-weight:normal" x="832.564" y="450.826">
    <tspan x="832.564" y="450.826">&lt;&lt;include&gt;&gt;</tspan>
  </text>
  <text font-size="12.8" style="fill: #000000;text-anchor:start;font-family:sans-serif;font-style:normal;font-weight:normal" x="195.193" y="366.076">
    <tspan x="195.193" y="366.076">&lt;&lt;include&gt;&gt;</tspan>
  </text>
  <text font-size="12.8" style="fill: #000000;text-anchor:start;font-family:sans-serif;font-style:normal;font-weight:normal" x="186.321" y="409.588">
    <tspan x="186.321" y="409.588">&lt;&lt;include&gt;&gt;</tspan>
  </text>
  <text font-size="12.8" style="fill: #000000;text-anchor:start;font-family:sans-serif;font-style:normal;font-weight:normal" x="178.624" y="474.662">
    <tspan x="178.624" y="474.662">&lt;&lt;include&gt;&gt;</tspan>
  </text>
</svg>
