<?xml version="1.0" encoding="UTF-8" standalone="no"?>
<!DOCTYPE svg PUBLIC "-//W3C//DTD SVG 1.0//EN" "http://www.w3.org/TR/2001/PR-SVG-20010719/DTD/svg10.dtd">
<svg width="38cm" height="21cm" viewBox="-35 171 741 402" xmlns="http://www.w3.org/2000/svg" xmlns:xlink="http://www.w3.org/1999/xlink">
  <g>
    <rect style="fill: #ffffff" x="98" y="402" width="74.2" height="36"/>
    <rect style="fill: none; fill-opacity:0; stroke-width: 1; stroke: #000000" x="98" y="402" width="74.2" height="36"/>
    <text font-size="12.8" style="fill: #000000;text-anchor:middle;font-family:monospace;font-style:normal;font-weight:normal" x="135.1" y="424">groups</text>
  </g>
  <g>
    <ellipse style="fill: #ffffff" cx="30.6256" cy="370.51" rx="39.25" ry="18"/>
    <ellipse style="fill: none; fill-opacity:0; stroke-width: 1; stroke: #000000" cx="30.6256" cy="370.51" rx="39.25" ry="18"/>
    <text font-size="12.8" style="fill: #000000;text-anchor:middle;font-family:monospace;font-style:normal;font-weight:normal" x="30.6256" y="374.51">owner</text>
  </g>
  <g>
    <ellipse style="fill: #ffffff" cx="28.8091" cy="448.842" rx="35.4" ry="18"/>
    <ellipse style="fill: none; fill-opacity:0; stroke-width: 1; stroke: #000000" cx="28.8091" cy="448.842" rx="35.4" ry="18"/>
    <text font-size="12.8" style="fill: #000000;text-anchor:middle;font-family:monospace;font-style:normal;font-weight:normal" x="28.8091" y="452.842">name</text>
  </g>
  <g>
    <ellipse style="fill: #ffffff" cx="12.9042" cy="409.522" rx="46.95" ry="18"/>
    <ellipse style="fill: none; fill-opacity:0; stroke-width: 1; stroke: #000000" cx="12.9042" cy="409.522" rx="46.95" ry="18"/>
    <text font-size="12.8" style="fill: #000000;text-anchor:middle;font-family:monospace;font-style:normal;font-weight:normal" x="12.9042" y="413.522">groupId</text>
    <line style="fill: none; fill-opacity:0; stroke-width: 1; stroke: #000000" x1="-14.0458" y1="417.522" x2="39.8542" y2="417.522"/>
  </g>
  <g>
    <ellipse style="fill: #ffffff" cx="69.9266" cy="485.026" rx="46.95" ry="18"/>
    <ellipse style="fill: none; fill-opacity:0; stroke-width: 1; stroke: #000000" cx="69.9266" cy="485.026" rx="46.95" ry="18"/>
    <text font-size="12.8" style="fill: #000000;text-anchor:middle;font-family:monospace;font-style:normal;font-weight:normal" x="69.9266" y="489.026">maxUser</text>
  </g>
  <line style="fill: none; fill-opacity:0; stroke-width: 1; stroke: #000000" x1="59.2199" y1="413.493" x2="97.4956" y2="416.776"/>
  <line style="fill: none; fill-opacity:0; stroke-width: 1; stroke: #000000" x1="58.383" y1="383.659" x2="97.4971" y2="402.187"/>
  <line style="fill: none; fill-opacity:0; stroke-width: 1; stroke: #000000" x1="60.5264" y1="440.236" x2="97.5115" y2="430.2"/>
  <line style="fill: none; fill-opacity:0; stroke-width: 1; stroke: #000000" x1="87.1189" y1="467.873" x2="116.563" y2="438.495"/>
  <g>
    <ellipse style="fill: #ffffff" cx="662.316" cy="361.292" rx="43.1" ry="18"/>
    <ellipse style="fill: none; fill-opacity:0; stroke-width: 1; stroke: #000000" cx="662.316" cy="361.292" rx="43.1" ry="18"/>
    <text font-size="12.8" style="fill: #000000;text-anchor:middle;font-family:monospace;font-style:normal;font-weight:normal" x="662.316" y="365.292">userId</text>
    <line style="fill: none; fill-opacity:0; stroke-width: 1; stroke: #000000" x1="639.216" y1="369.292" x2="685.416" y2="369.292"/>
  </g>
  <g>
    <ellipse style="fill: #ffffff" cx="330.212" cy="190.052" rx="39.25" ry="18"/>
    <ellipse style="fill: none; fill-opacity:0; stroke-width: 1; stroke: #000000" cx="330.212" cy="190.052" rx="39.25" ry="18"/>
    <text font-size="12.8" style="fill: #000000;text-anchor:middle;font-family:monospace;font-style:normal;font-weight:normal" x="330.212" y="194.052">title</text>
  </g>
  <g>
    <ellipse style="fill: #ffffff" cx="430.874" cy="212.701" rx="43.1" ry="18.001"/>
    <ellipse style="fill: none; fill-opacity:0; stroke-width: 1; stroke: #000000" cx="430.874" cy="212.701" rx="43.1" ry="18.001"/>
    <text font-size="12.8016" style="fill: #000000;text-anchor:middle;font-family:monospace;font-style:normal;font-weight:normal" x="430.874" y="216.702">author</text>
  </g>
  <g>
    <polygon style="fill: #ffffff" points="256.526,325.104 330.426,280.764 404.326,325.104 330.426,369.444 "/>
    <polygon style="fill: none; fill-opacity:0; stroke-width: 1; stroke: #000000" points="256.526,325.104 330.426,280.764 404.326,325.104 330.426,369.444 "/>
    <text font-size="12.8" style="fill: #000000;text-anchor:end;font-family:monospace;font-style:normal;font-weight:normal" x="250.526" y="319.104">*</text>
    <text font-size="12.8" style="fill: #000000;text-anchor:start;font-family:monospace;font-style:normal;font-weight:normal" x="410.326" y="319.104">*</text>
    <text font-size="12.8" style="fill: #000000;text-anchor:middle;font-family:monospace;font-style:normal;font-weight:normal" x="330.426" y="329.104">participations</text>
  </g>
  <g>
    <rect style="fill: #ffffff" x="481.2" y="393.01" width="66.5" height="36"/>
    <rect style="fill: none; fill-opacity:0; stroke-width: 1; stroke: #000000" x="481.2" y="393.01" width="66.5" height="36"/>
    <text font-size="12.8" style="fill: #000000;text-anchor:middle;font-family:monospace;font-style:normal;font-weight:normal" x="514.45" y="415.01">users</text>
  </g>
  <line style="fill: none; fill-opacity:0; stroke-width: 1; stroke: #000000" x1="404.326" y1="325.104" x2="490.723" y2="392.501"/>
  <line style="fill: none; fill-opacity:0; stroke-width: 1; stroke: #000000" x1="370.473" y1="280.291" x2="415.467" y2="229.942"/>
  <line style="fill: none; fill-opacity:0; stroke-width: 1; stroke: #000000" x1="330.355" y1="280.526" x2="330.241" y2="208.558"/>
  <line style="fill: none; fill-opacity:0; stroke-width: 1; stroke: #000000" x1="628.265" y1="372.741" x2="548.186" y2="399.667"/>
  <g>
    <ellipse style="fill: #ffffff" cx="655.574" cy="444.744" rx="35.4" ry="18"/>
    <ellipse style="fill: none; fill-opacity:0; stroke-width: 1; stroke: #000000" cx="655.574" cy="444.744" rx="35.4" ry="18"/>
    <text font-size="12.8" style="fill: #000000;text-anchor:middle;font-family:monospace;font-style:normal;font-weight:normal" x="655.574" y="448.744">home</text>
  </g>
  <g>
    <ellipse style="fill: #ffffff" cx="536.606" cy="258.226" rx="39.25" ry="18"/>
    <ellipse style="fill: none; fill-opacity:0; stroke-width: 1; stroke: #000000" cx="536.606" cy="258.226" rx="39.25" ry="18"/>
    <text font-size="12.8" style="fill: #000000;text-anchor:middle;font-family:monospace;font-style:normal;font-weight:normal" x="536.606" y="262.226">email</text>
  </g>
  <g>
    <ellipse style="fill: #ffffff" cx="659.496" cy="404.544" rx="39.25" ry="18"/>
    <ellipse style="fill: none; fill-opacity:0; stroke-width: 1; stroke: #000000" cx="659.496" cy="404.544" rx="39.25" ry="18"/>
    <text font-size="12.8" style="fill: #000000;text-anchor:middle;font-family:monospace;font-style:normal;font-weight:normal" x="659.496" y="408.544">phone</text>
  </g>
  <g>
    <ellipse style="fill: #ffffff" cx="634.13" cy="482.16" rx="31.55" ry="18"/>
    <ellipse style="fill: none; fill-opacity:0; stroke-width: 1; stroke: #000000" cx="634.13" cy="482.16" rx="31.55" ry="18"/>
    <text font-size="12.8" style="fill: #000000;text-anchor:middle;font-family:monospace;font-style:normal;font-weight:normal" x="634.13" y="486.16">CPF</text>
  </g>
  <line style="fill: none; fill-opacity:0; stroke-width: 1; stroke: #000000" x1="548.206" y1="409.505" x2="619.932" y2="406.308"/>
  <line style="fill: none; fill-opacity:0; stroke-width: 1; stroke: #000000" x1="545.568" y1="429.51" x2="611.858" y2="468.919"/>
  <line style="fill: none; fill-opacity:0; stroke-width: 1; stroke: #000000" x1="548.146" y1="419.065" x2="623.325" y2="437.035"/>
  <line style="fill: none; fill-opacity:0; stroke-width: 1; stroke: #000000" x1="517.09" y1="392.807" x2="533.931" y2="276.671"/>
  <line style="fill: none; fill-opacity:0; stroke-width: 1; stroke: #000000" x1="256.526" y1="325.104" x2="158.772" y2="401.5"/>
  <g>
    <ellipse style="fill: #ffffff" cx="54.4996" cy="332.552" rx="46.95" ry="18"/>
    <ellipse style="fill: none; fill-opacity:0; stroke-width: 1; stroke: #000000" cx="54.4996" cy="332.552" rx="46.95" ry="18"/>
    <text font-size="12.8" style="fill: #000000;text-anchor:middle;font-family:monospace;font-style:normal;font-weight:normal" x="54.4996" y="336.552">maxTime</text>
  </g>
  <line style="fill: none; fill-opacity:0; stroke-width: 1; stroke: #000000" x1="70.4829" y1="349.893" x2="118.049" y2="401.501"/>
  <g>
    <ellipse style="fill: #ffffff" cx="544.532" cy="554.932" rx="50.8" ry="18"/>
    <ellipse style="fill: none; fill-opacity:0; stroke-width: 1; stroke: #000000" cx="544.532" cy="554.932" rx="50.8" ry="18"/>
    <text font-size="12.8" style="fill: #000000;text-anchor:middle;font-family:monospace;font-style:normal;font-weight:normal" x="544.532" y="558.932">positive</text>
  </g>
  <g>
    <ellipse style="fill: #ffffff" cx="596.046" cy="517.704" rx="50.8" ry="18"/>
    <ellipse style="fill: none; fill-opacity:0; stroke-width: 1; stroke: #000000" cx="596.046" cy="517.704" rx="50.8" ry="18"/>
    <text font-size="12.8" style="fill: #000000;text-anchor:middle;font-family:monospace;font-style:normal;font-weight:normal" x="596.046" y="521.704">negative</text>
  </g>
  <line style="fill: none; fill-opacity:0; stroke-width: 1; stroke: #000000" x1="528.599" y1="429.511" x2="582.455" y2="499.933"/>
  <line style="fill: none; fill-opacity:0; stroke-width: 1; stroke: #000000" x1="540.68" y1="536.503" x2="518.317" y2="429.51"/>
  <g>
    <ellipse style="fill: #ffffff" cx="586.014" cy="291.536" rx="50.8" ry="18"/>
    <ellipse style="fill: none; fill-opacity:0; stroke-width: 1; stroke: #000000" cx="586.014" cy="291.536" rx="50.8" ry="18"/>
    <text font-size="12.8" style="fill: #000000;text-anchor:middle;font-family:monospace;font-style:normal;font-weight:normal" x="586.014" y="295.536">password</text>
  </g>
  <g>
    <ellipse style="fill: #ffffff" cx="640.12" cy="322.388" rx="39.25" ry="18"/>
    <ellipse style="fill: none; fill-opacity:0; stroke-width: 1; stroke: #000000" cx="640.12" cy="322.388" rx="39.25" ry="18"/>
    <text font-size="12.8" style="fill: #000000;text-anchor:middle;font-family:monospace;font-style:normal;font-weight:normal" x="640.12" y="326.388">login</text>
  </g>
  <line style="fill: none; fill-opacity:0; stroke-width: 1; stroke: #000000" x1="525.531" y1="392.51" x2="575.212" y2="309.569"/>
  <line style="fill: none; fill-opacity:0; stroke-width: 1; stroke: #000000" x1="540.69" y1="392.506" x2="618.321" y2="337.761"/>
  <g>
    <ellipse style="fill: #ffffff" cx="202.928" cy="217.014" rx="54.65" ry="18"/>
    <ellipse style="fill: none; fill-opacity:0; stroke-width: 1; stroke: #000000" cx="202.928" cy="217.014" rx="54.65" ry="18"/>
    <text font-size="12.8" style="fill: #000000;text-anchor:middle;font-family:monospace;font-style:normal;font-weight:normal" x="202.928" y="221.014">extraInfo</text>
  </g>
  <line style="fill: none; fill-opacity:0; stroke-width: 1; stroke: #000000" x1="277.533" y1="280.262" x2="223.106" y2="234.12"/>
  <g>
    <ellipse style="fill: #ffffff" cx="93.8978" cy="295.914" rx="46.95" ry="18"/>
    <ellipse style="fill: none; fill-opacity:0; stroke-width: 1; stroke: #000000" cx="93.8978" cy="295.914" rx="46.95" ry="18"/>
    <text font-size="12.8" style="fill: #000000;text-anchor:middle;font-family:monospace;font-style:normal;font-weight:normal" x="93.8978" y="299.914">private</text>
  </g>
  <line style="fill: none; fill-opacity:0; stroke-width: 1; stroke: #000000" x1="128.959" y1="401.505" x2="99.9861" y2="314.25"/>
  <g>
    <polygon style="fill: #ffffff" points="271.48,506.252 329.98,471.152 388.48,506.252 329.98,541.352 "/>
    <polygon style="fill: none; fill-opacity:0; stroke-width: 1; stroke: #000000" points="271.48,506.252 329.98,471.152 388.48,506.252 329.98,541.352 "/>
    <text font-size="12.8" style="fill: #000000;text-anchor:end;font-family:monospace;font-style:normal;font-weight:normal" x="265.48" y="500.252">*</text>
    <text font-size="12.8" style="fill: #000000;text-anchor:start;font-family:monospace;font-style:normal;font-weight:normal" x="394.48" y="500.252">*</text>
    <text font-size="12.8" style="fill: #000000;text-anchor:middle;font-family:monospace;font-style:normal;font-weight:normal" x="329.98" y="510.252">invitation</text>
  </g>
  <line style="fill: none; fill-opacity:0; stroke-width: 1; stroke: #000000" x1="164.35" y1="438.499" x2="271.48" y2="506.252"/>
  <line style="fill: none; fill-opacity:0; stroke-width: 1; stroke: #000000" x1="388.48" y1="506.252" x2="490.031" y2="429.472"/>
</svg>
