<?xml version="1.0" encoding="UTF-8" standalone="no"?>
<!DOCTYPE svg PUBLIC "-//W3C//DTD SVG 1.0//EN" "http://www.w3.org/TR/2001/PR-SVG-20010719/DTD/svg10.dtd">
<svg width="39cm" height="14cm" viewBox="-59 273 765 272" xmlns="http://www.w3.org/2000/svg" xmlns:xlink="http://www.w3.org/1999/xlink">
  <g>
    <rect style="fill: #ffffff" x="98" y="402" width="74.2" height="36"/>
    <rect style="fill: none; fill-opacity:0; stroke-width: 1; stroke: #000000" x="98" y="402" width="74.2" height="36"/>
    <text font-size="12.8" style="fill: #000000;text-anchor:middle;font-family:monospace;font-style:normal;font-weight:normal" x="135.1" y="424">groups</text>
  </g>
  <g>
    <ellipse style="fill: #ffffff" cx="50.0232" cy="337.046" rx="39.25" ry="18"/>
    <ellipse style="fill: none; fill-opacity:0; stroke-width: 1; stroke: #000000" cx="50.0232" cy="337.046" rx="39.25" ry="18"/>
    <text font-size="12.8" style="fill: #000000;text-anchor:middle;font-family:monospace;font-style:normal;font-weight:normal" x="50.0232" y="341.046">owner</text>
  </g>
  <g>
    <ellipse style="fill: #ffffff" cx="31.9502" cy="485" rx="46.95" ry="18"/>
    <ellipse style="fill: none; fill-opacity:0; stroke-width: 1; stroke: #000000" cx="31.9502" cy="485" rx="46.95" ry="18"/>
    <text font-size="12.8" style="fill: #000000;text-anchor:middle;font-family:monospace;font-style:normal;font-weight:normal" x="31.9502" y="489">minUser</text>
  </g>
  <g>
    <ellipse style="fill: #ffffff" cx="-11.4818" cy="385.136" rx="46.95" ry="18"/>
    <ellipse style="fill: none; fill-opacity:0; stroke-width: 1; stroke: #000000" cx="-11.4818" cy="385.136" rx="46.95" ry="18"/>
    <text font-size="12.8" style="fill: #000000;text-anchor:middle;font-family:monospace;font-style:normal;font-weight:normal" x="-11.4818" y="389.136">groupId</text>
    <line style="fill: none; fill-opacity:0; stroke-width: 1; stroke: #000000" x1="-38.4318" y1="393.136" x2="15.4682" y2="393.136"/>
  </g>
  <g>
    <ellipse style="fill: #ffffff" cx="178.746" cy="517.954" rx="46.95" ry="18"/>
    <ellipse style="fill: none; fill-opacity:0; stroke-width: 1; stroke: #000000" cx="178.746" cy="517.954" rx="46.95" ry="18"/>
    <text font-size="12.8" style="fill: #000000;text-anchor:middle;font-family:monospace;font-style:normal;font-weight:normal" x="178.746" y="521.954">maxUser</text>
  </g>
  <line style="fill: none; fill-opacity:0; stroke-width: 1; stroke: #000000" x1="28.8944" y1="394.739" x2="97.5062" y2="411.058"/>
  <line style="fill: none; fill-opacity:0; stroke-width: 1; stroke: #000000" x1="67.0759" y1="353.673" x2="116.136" y2="401.51"/>
  <line style="fill: none; fill-opacity:0; stroke-width: 1; stroke: #000000" x1="56.7555" y1="469.369" x2="105.762" y2="438.488"/>
  <line style="fill: none; fill-opacity:0; stroke-width: 1; stroke: #000000" x1="170.634" y1="499.749" x2="143.337" y2="438.486"/>
  <g>
    <ellipse style="fill: #ffffff" cx="662.316" cy="361.293" rx="43.1" ry="18"/>
    <ellipse style="fill: none; fill-opacity:0; stroke-width: 1; stroke: #000000" cx="662.316" cy="361.293" rx="43.1" ry="18"/>
    <text font-size="12.8" style="fill: #000000;text-anchor:middle;font-family:monospace;font-style:normal;font-weight:normal" x="662.316" y="365.293">userId</text>
    <line style="fill: none; fill-opacity:0; stroke-width: 1; stroke: #000000" x1="639.216" y1="369.293" x2="685.416" y2="369.293"/>
  </g>
  <g>
    <ellipse style="fill: #ffffff" cx="337.232" cy="526.18" rx="39.25" ry="18"/>
    <ellipse style="fill: none; fill-opacity:0; stroke-width: 1; stroke: #000000" cx="337.232" cy="526.18" rx="39.25" ry="18"/>
    <text font-size="12.8" style="fill: #000000;text-anchor:middle;font-family:monospace;font-style:normal;font-weight:normal" x="337.232" y="530.18">title</text>
  </g>
  <g>
    <ellipse style="fill: #ffffff" cx="336.082" cy="333.181" rx="43.1" ry="18.001"/>
    <ellipse style="fill: none; fill-opacity:0; stroke-width: 1; stroke: #000000" cx="336.082" cy="333.181" rx="43.1" ry="18.001"/>
    <text font-size="12.8016" style="fill: #000000;text-anchor:middle;font-family:monospace;font-style:normal;font-weight:normal" x="336.082" y="337.181">author</text>
  </g>
  <g>
    <polygon style="fill: #ffffff" points="263.982,423.52 337.882,379.18 411.782,423.52 337.882,467.86 "/>
    <polygon style="fill: none; fill-opacity:0; stroke-width: 1; stroke: #000000" points="263.982,423.52 337.882,379.18 411.782,423.52 337.882,467.86 "/>
    <text font-size="12.8" style="fill: #000000;text-anchor:end;font-family:monospace;font-style:normal;font-weight:normal" x="257.982" y="417.52">*</text>
    <text font-size="12.8" style="fill: #000000;text-anchor:start;font-family:monospace;font-style:normal;font-weight:normal" x="417.782" y="417.52">*</text>
    <text font-size="12.8" style="fill: #000000;text-anchor:middle;font-family:monospace;font-style:normal;font-weight:normal" x="337.882" y="427.52">participations</text>
  </g>
  <g>
    <rect style="fill: #ffffff" x="462.86" y="406.765" width="66.5" height="36"/>
    <rect style="fill: none; fill-opacity:0; stroke-width: 1; stroke: #000000" x="462.86" y="406.765" width="66.5" height="36"/>
    <text font-size="12.8" style="fill: #000000;text-anchor:middle;font-family:monospace;font-style:normal;font-weight:normal" x="496.11" y="428.765">users</text>
  </g>
  <line style="fill: none; fill-opacity:0; stroke-width: 1; stroke: #000000" x1="412.244" y1="424.105" x2="462.386" y2="424.5"/>
  <line style="fill: none; fill-opacity:0; stroke-width: 1; stroke: #000000" x1="336.988" y1="378.676" x2="336.45" y2="351.674"/>
  <line style="fill: none; fill-opacity:0; stroke-width: 1; stroke: #000000" x1="337.598" y1="468.365" x2="337.349" y2="507.677"/>
  <line style="fill: none; fill-opacity:0; stroke-width: 1; stroke: #000000" x1="630.047" y1="373.616" x2="528.572" y2="412.368"/>
  <g>
    <ellipse style="fill: #ffffff" cx="655.574" cy="444.745" rx="35.4" ry="18"/>
    <ellipse style="fill: none; fill-opacity:0; stroke-width: 1; stroke: #000000" cx="655.574" cy="444.745" rx="35.4" ry="18"/>
    <text font-size="12.8" style="fill: #000000;text-anchor:middle;font-family:monospace;font-style:normal;font-weight:normal" x="655.574" y="448.745">home</text>
  </g>
  <g>
    <ellipse style="fill: #ffffff" cx="492.88" cy="313.726" rx="39.25" ry="18"/>
    <ellipse style="fill: none; fill-opacity:0; stroke-width: 1; stroke: #000000" cx="492.88" cy="313.726" rx="39.25" ry="18"/>
    <text font-size="12.8" style="fill: #000000;text-anchor:middle;font-family:monospace;font-style:normal;font-weight:normal" x="492.88" y="317.726">email</text>
  </g>
  <g>
    <ellipse style="fill: #ffffff" cx="659.495" cy="404.544" rx="39.25" ry="18"/>
    <ellipse style="fill: none; fill-opacity:0; stroke-width: 1; stroke: #000000" cx="659.495" cy="404.544" rx="39.25" ry="18"/>
    <text font-size="12.8" style="fill: #000000;text-anchor:middle;font-family:monospace;font-style:normal;font-weight:normal" x="659.495" y="408.544">phone</text>
  </g>
  <g>
    <ellipse style="fill: #ffffff" cx="634.13" cy="482.159" rx="31.55" ry="18"/>
    <ellipse style="fill: none; fill-opacity:0; stroke-width: 1; stroke: #000000" cx="634.13" cy="482.159" rx="31.55" ry="18"/>
    <text font-size="12.8" style="fill: #000000;text-anchor:middle;font-family:monospace;font-style:normal;font-weight:normal" x="634.13" y="486.159">CPF</text>
  </g>
  <line style="fill: none; fill-opacity:0; stroke-width: 1; stroke: #000000" x1="529.866" y1="420.587" x2="621.112" y2="409.294"/>
  <line style="fill: none; fill-opacity:0; stroke-width: 1; stroke: #000000" x1="529.84" y1="438.791" x2="608.175" y2="471.366"/>
  <line style="fill: none; fill-opacity:0; stroke-width: 1; stroke: #000000" x1="529.844" y1="428.992" x2="623.183" y2="440.687"/>
  <line style="fill: none; fill-opacity:0; stroke-width: 1; stroke: #000000" x1="495.571" y1="406.263" x2="493.418" y2="332.228"/>
  <line style="fill: none; fill-opacity:0; stroke-width: 1; stroke: #000000" x1="263.982" y1="423.52" x2="172.685" y2="421.027"/>
  <g>
    <ellipse style="fill: #ffffff" cx="184.933" cy="327.18" rx="46.95" ry="18"/>
    <ellipse style="fill: none; fill-opacity:0; stroke-width: 1; stroke: #000000" cx="184.933" cy="327.18" rx="46.95" ry="18"/>
    <text font-size="12.8" style="fill: #000000;text-anchor:middle;font-family:monospace;font-style:normal;font-weight:normal" x="184.933" y="331.18">maxTime</text>
  </g>
  <line style="fill: none; fill-opacity:0; stroke-width: 1; stroke: #000000" x1="175.236" y1="345.241" x2="145.034" y2="401.497"/>
  <g>
    <ellipse style="fill: #ffffff" cx="489.874" cy="519.613" rx="50.8" ry="18"/>
    <ellipse style="fill: none; fill-opacity:0; stroke-width: 1; stroke: #000000" cx="489.874" cy="519.613" rx="50.8" ry="18"/>
    <text font-size="12.8" style="fill: #000000;text-anchor:middle;font-family:monospace;font-style:normal;font-weight:normal" x="489.874" y="523.613">positive</text>
  </g>
  <g>
    <ellipse style="fill: #ffffff" cx="596.045" cy="517.703" rx="50.8" ry="18"/>
    <ellipse style="fill: none; fill-opacity:0; stroke-width: 1; stroke: #000000" cx="596.045" cy="517.703" rx="50.8" ry="18"/>
    <text font-size="12.8" style="fill: #000000;text-anchor:middle;font-family:monospace;font-style:normal;font-weight:normal" x="596.045" y="521.703">negative</text>
  </g>
  <line style="fill: none; fill-opacity:0; stroke-width: 1; stroke: #000000" x1="515.823" y1="443.099" x2="577.594" y2="500.544"/>
  <line style="fill: none; fill-opacity:0; stroke-width: 1; stroke: #000000" x1="491.089" y1="501.123" x2="494.894" y2="443.255"/>
  <g>
    <ellipse style="fill: #ffffff" cx="586.013" cy="291.536" rx="50.8" ry="18"/>
    <ellipse style="fill: none; fill-opacity:0; stroke-width: 1; stroke: #000000" cx="586.013" cy="291.536" rx="50.8" ry="18"/>
    <text font-size="12.7998" style="fill: #000000;text-anchor:middle;font-family:monospace;font-style:normal;font-weight:normal" x="586.013" y="295.536">password</text>
  </g>
  <g>
    <ellipse style="fill: #ffffff" cx="640.12" cy="322.388" rx="39.25" ry="18"/>
    <ellipse style="fill: none; fill-opacity:0; stroke-width: 1; stroke: #000000" cx="640.12" cy="322.388" rx="39.25" ry="18"/>
    <text font-size="12.7998" style="fill: #000000;text-anchor:middle;font-family:monospace;font-style:normal;font-weight:normal" x="640.12" y="326.388">login</text>
  </g>
  <line style="fill: none; fill-opacity:0; stroke-width: 1; stroke: #000000" x1="508.588" y1="406.274" x2="573.93" y2="309.441"/>
  <line style="fill: none; fill-opacity:0; stroke-width: 1; stroke: #000000" x1="522.136" y1="406.263" x2="618.445" y2="337.797"/>
</svg>
